# xmcd
#
# Track frame offsets:
#	150
#	16425
#	28945
#	40048
#	51899
#	64609
#	76881
#	89345
#	103016
#	123474
#	138979
#	148884
#	160992
#	171745
#	186117
#	200217
#	212779
#	226439
#	238006
#	247756
#	262586
#	277827
#	292869
#	304132
#	315361
#
# Disc length: 4367 seconds
#
# Revision: 0
# Processed by: cddbd v1.5.1PL2 Copyright (c) Steve Scherf et al.
# Submitted via: audiograbber 1.83.01
#
DISCID=63110d19
DTITLE=Billie Jo Spears - Hits And Rarities
DYEAR=1992
DGENRE=Country
TTITLE0=Blanket On The Ground
TTITLE1=What I've Got In Mind
TTITLE2=If You Want Me
TTITLE3=Rainy Days and Stormy Nights
TTITLE4=57 Chevrolet
TTITLE5=Lonely Hearts Club
TTITLE6=Marty Gray
TTITLE7=Mr. Walker, It's All Over
TTITLE8=Ode To Billy Joe
TTITLE9=Sing Me An Old Fashioned Song
TTITLE10=Never Did Like Whiskey
TTITLE11=Look What They've Done To My Song Ma
TTITLE12=He's Got More Love In His Little Fingers
TTITLE13=Hurt
TTITLE14=Blue Bayou
TTITLE15=I Don't Wanna Play House
TTITLE16=Take Me To Your World
TTITLE17=Stand By Your Man
TTITLE18=Danny (Ruby Baby) 
TTITLE19=Another Somebody Done Somebody Wrong Song
TTITLE20=Loving Him Was Easier (Than Anything I'll Ever DEo Again)
TTITLE21=Every Time I Sing A Love Song
TTITLE22=Till Something Better Comes Along
TTITLE23=Come On Home
TTITLE24=Teardrops Will Kiss The Morning Dew (Duet With Del Reeves)
EXTD=
EXTT0=
EXTT1=
EXTT2=
EXTT3=
EXTT4=
EXTT5=
EXTT6=
EXTT7=
EXTT8=
EXTT9=
EXTT10=
EXTT11=
EXTT12=
EXTT13=
EXTT14=
EXTT15=
EXTT16=
EXTT17=
EXTT18=
EXTT19=
EXTT20=
EXTT21=
EXTT22=
EXTT23=
EXTT24=
PLAYORDER=
